<svg id="Livello_1" xmlns="http://www.w3.org/2000/svg" xmlns:xlink="http://www.w3.org/1999/xlink" x="0px" y="0px" height="40px" viewBox="27 0 124.6 48.3" style="" xml:space="preserve">
<style type="text/css">
	.st0{fill:#1E2151;}
    .st1{fill:#F9B17C;}
    .st2{fill:#F58B3E;}
    .st3{fill:#FFFFFF;}
</style>
    <g>
	<path class="st0" d="M83.6,18c0.6,2.5,2.6,4.1,4.9,4.1c1.7,0,3.4-0.9,4.2-2.5h2.8c-1.2,3.1-3.9,5.1-7.1,5.1c-4.2,0-7.6-3.7-7.6-7.7
		c0-4.7,3.5-8,7.5-8c4.4,0,7.7,3.4,7.7,7.7c0,0.5,0,0.9-0.1,1.4H83.6z M93.2,15.9c-0.2-2.5-2.4-4.4-4.8-4.4c-2.3,0-4.6,1.8-4.8,4.4
		H93.2z"></path>
        <path class="st0" d="M116.9,24.3v-8.4c0-2.8-1.2-4.4-3.5-4.4c-2.5,0-3.5,1.4-3.5,4.4v8.4H107v-8.7c0-2.9-1.4-4.1-3.4-4.1
		c-2.5,0-3.7,1.5-3.7,4.4v8.4h-2.8v-15h2.6v1.6h0.1c1.2-1.4,2.3-2,4.3-2c1.9,0,3.9,0.9,4.6,2.5c1.1-1.7,2.6-2.5,4.9-2.5
		c3.9,0,6.1,2.4,6.1,6.3v9.1H116.9z"></path>
        <path class="st0" d="M133.8,24.3V22h-0.1c-1,1.8-2.9,2.7-5,2.7c-4.3,0-7.9-3.3-7.9-7.6c0-4.8,3.4-8.1,7.8-8.1c2.2,0,4,0.8,5.2,2.5
		h0.1V9.3h2.8v15H133.8z M133.9,16.8c0-2.9-2.1-5.4-5.2-5.4c-2.8,0-5.1,2.4-5.1,5.4c0,2.8,2.3,5.3,5.1,5.3
		C131.6,22.1,133.9,19.7,133.9,16.8"></path>
        <path class="st0" d="M138.6,4.3h2.8v3.3h-2.8V4.3z M138.6,9.3h2.8v15h-2.8V9.3z"></path>
        <rect x="143.5" y="4.3" class="st0" width="2.8" height="20"></rect>
        <path class="st0" d="M95.7,42.6c-1.2,3.4-4,5.3-7.3,5.3c-4.3,0-7.6-3.5-7.6-7.7c0-4.5,3.2-8,7.6-8c3.4,0,6.5,2.1,7.4,5.4h-3.1
		c-0.8-1.8-2.2-2.8-4.2-2.8c-2.9,0-4.9,2.2-4.9,5.3c0,3,2,5.3,4.8,5.3c1.9,0,3.4-1,4.2-2.8H95.7z"></path>
        <path class="st0" d="M107.5,47.5v-8.1c0-3.2-1.2-4.7-3.7-4.7c-2.4,0-3.9,1.8-3.9,4.7v8.1h-2.8v-20h2.8v6.6h0.1c0.9-1.3,2.3-2,4.2-2
		c3.5,0,6.2,2.3,6.2,6.4v9H107.5z"></path>
        <path class="st0" d="M114.3,41.2c0.6,2.5,2.6,4.1,4.9,4.1c1.7,0,3.4-0.9,4.2-2.5h2.8c-1.2,3.1-3.9,5.1-7.1,5.1
		c-4.2,0-7.6-3.7-7.6-7.7c0-4.7,3.5-8,7.5-8c4.4,0,7.7,3.4,7.7,7.7c0,0.5,0,0.9-0.1,1.4H114.3z M123.9,39.1
		c-0.2-2.5-2.4-4.4-4.8-4.4c-2.3,0-4.6,1.8-4.8,4.4H123.9z"></path>
        <path class="st0" d="M127.9,47.5V35.1h-1.3v-2.6h1.3v-0.7c0-2.9,2-4.4,4.8-4.4h0.6v2.6c-1.8,0-2.6,0.6-2.6,1.8v0.7h2.6v2.6h-2.6
		v12.4H127.9z"></path>
        <path class="st1" d="M77.4,19.8c0-6.4-5.1-11.6-11.5-11.7C63.7,3.5,59,0.4,53.6,0.4c-4,0-7.6,1.7-10.1,4.4c-0.5-0.1-1-0.1-1.5-0.1
		c-7.6,0-13.7,6.2-13.7,13.8c0,5.2,2.8,9.7,7,12l-0.8-7.1c0,0,0,0,0,0l0-0.1c0,0,0,0,0-0.1c0-0.5,0.5-1,1.1-1h35h0.1
		c0.8,0,1.2,0.6,1.1,1.2c0,0,0,0,0,0.1l-0.6,6.6C75,28.1,77.4,24.2,77.4,19.8"></path>
        <path class="st2" d="M34.5,23.3l0,0.1C34.5,23.3,34.5,23.3,34.5,23.3C34.5,23.2,34.5,23.3,34.5,23.3"></path>
        <path class="st2" d="M71.9,23.4c0,0.2-0.2,0.4-0.3,0.6l-8.5,7.1l-9.6,8c-0.4,0.4-1.1,0.4-1.6,0l-7.8-6.9L34.8,24
		c-0.2-0.2-0.3-0.3-0.3-0.5l0.8,7.1L37,46.7c0,0.7,0.6,1.3,1.3,1.3h30.2c0.7,0,1.3-0.6,1.3-1.3l1.6-16.6L71.9,23.4
		C71.9,23.5,71.9,23.4,71.9,23.4"></path>
        <path class="st3" d="M36,22.3l34.7-0.1h-35c-0.7,0-1.1,0.5-1.1,1C34.5,22.6,35.3,22.3,36,22.3"></path>
        <path class="st3" d="M71.9,23.4c0.1-0.6-0.3-1.2-1.1-1.2h-0.1C71.3,22.2,71.9,22.7,71.9,23.4"></path>
        <path class="st3" d="M34.5,23.4L34.5,23.4C34.5,23.4,34.5,23.4,34.5,23.4"></path>
        <path class="st3" d="M70.7,22.2L36,22.3c-0.7,0-1.4,0.2-1.5,0.9c0,0.1,0,0.1,0,0.2l0,0c0,0.2,0.1,0.4,0.3,0.5l9.2,8.2l7.8,6.9
		c0.4,0.4,1.1,0.4,1.6,0l9.6-8l8.5-7.1c0.2-0.2,0.3-0.4,0.3-0.6C71.9,22.7,71.3,22.2,70.7,22.2"></path>
</g>
</svg>
